<?xml version="1.0" encoding="UTF-8" standalone="no"?>
<svg
   xmlns:dc="http://purl.org/dc/elements/1.1/"
   xmlns:cc="http://creativecommons.org/ns#"
   xmlns:rdf="http://www.w3.org/1999/02/22-rdf-syntax-ns#"
   xmlns:svg="http://www.w3.org/2000/svg"
   xmlns="http://www.w3.org/2000/svg"
   xmlns:sodipodi="http://sodipodi.sourceforge.net/DTD/sodipodi-0.dtd"
   xmlns:inkscape="http://www.inkscape.org/namespaces/inkscape"
   version="1.1"
   x="0px"
   y="0px"
   viewBox="0 0 100 100"
   id="svg10"
   sodipodi:docname="laptop.svg"
   inkscape:version="0.92.1 r15371"
   width="100"
   height="100">
  <metadata
     id="metadata16">
    <rdf:RDF>
      <cc:Work
         rdf:about="">
        <dc:format>image/svg+xml</dc:format>
        <dc:type
           rdf:resource="http://purl.org/dc/dcmitype/StillImage" />
        <dc:title></dc:title>
      </cc:Work>
    </rdf:RDF>
  </metadata>
  <defs
     id="defs14" />
  <sodipodi:namedview
     pagecolor="#ffffff"
     bordercolor="#666666"
     borderopacity="1"
     objecttolerance="10"
     gridtolerance="10"
     guidetolerance="10"
     inkscape:pageopacity="0"
     inkscape:pageshadow="2"
     inkscape:window-width="1920"
     inkscape:window-height="1017"
     id="namedview12"
     showgrid="false"
     inkscape:zoom="1.888"
     inkscape:cx="50"
     inkscape:cy="-1.059322"
     inkscape:window-x="4472"
     inkscape:window-y="361"
     inkscape:window-maximized="1"
     inkscape:current-layer="svg10" />
  <g
     transform="translate(1.059322,-951.93845)"
     id="g4">
    <path
       style="color:#000000;font-style:normal;font-variant:normal;font-weight:normal;font-stretch:normal;font-size:medium;line-height:normal;font-family:Sans;-inkscape-font-specification:Sans;text-indent:0;text-align:start;text-decoration:none;text-decoration-line:none;letter-spacing:normal;word-spacing:normal;text-transform:none;writing-mode:lr-tb;direction:ltr;baseline-shift:baseline;text-anchor:start;display:inline;overflow:visible;visibility:visible;opacity:1;fill:#000000;fill-opacity:1;stroke:none;stroke-width:4;marker:none;enable-background:accumulate"
       d="M 24.28125,12 C 20.90512,12 18,14.63392 18,18 v 34 c 0,1.246104 0.389738,2.394808 1.0625,3.34375 L 6.3125,75.9375 A 2.0002,2.0002 0 0 0 6,77 v 5 a 2.0002,2.0002 0 0 0 2,2 h 42 42 a 2.0002,2.0002 0 0 0 2,-2 V 77 A 2.0002,2.0002 0 0 0 93.6875,75.9375 L 80.9375,55.34375 C 81.610262,54.394808 82,53.246104 82,52 V 18 c 0,-3.36608 -2.90512,-6 -6.28125,-6 z m 0,4 h 51.4375 C 77.091191,16 78,16.93408 78,18 v 34 c 0,1.0659 -0.908809,2 -2.28125,2 H 24.28125 C 22.908809,54 22,53.0659 22,52 V 18 c 0,-1.06592 0.908809,-2 2.28125,-2 z M 47.875,24.96875 a 2.0001989,2.0001989 0 0 0 -1.8125,2.5 l 4,16 A 2.0001989,2.0001989 0 1 0 53.9375,42.5 l -4,-16 A 2.0001989,2.0001989 0 0 0 47.875,24.96875 Z m -5.0625,1 A 2.0001989,2.0001989 0 0 0 41.25,27 l -4,7 a 2.0001989,2.0001989 0 0 0 0,1.96875 l 4,7 A 2.0078581,2.0078581 0 1 0 44.75,41 L 41.3125,35 44.75,28.96875 a 2.0001989,2.0001989 0 0 0 -1.9375,-3 z m 13.90625,0 a 2.0001989,2.0001989 0 0 0 -1.46875,3 L 58.6875,35 55.25,41 a 2.0078581,2.0078581 0 1 0 3.5,1.96875 l 4,-7 A 2.0001989,2.0001989 0 0 0 62.75,34 l -4,-7 A 2.0001989,2.0001989 0 0 0 56.71875,25.96875 Z M 22.28125,57.6875 c 0.632107,0.205396 1.30719,0.3125 2,0.3125 h 51.4375 c 0.69281,0 1.367893,-0.107104 2,-0.3125 L 90,77.53125 V 80 H 50 10 V 77.53125 Z M 31.8125,62 A 2.0021961,2.0021961 0 1 0 32,66 h 36 a 2.0002,2.0002 0 1 0 0,-4 H 32 a 2.0002,2.0002 0 0 0 -0.1875,0 z m -5,8 A 2.0021961,2.0021961 0 1 0 27,74 h 46 a 2.0001996,2.0001996 0 1 0 0,-4 H 27 a 2.0001996,2.0001996 0 0 0 -0.1875,0 z"
       transform="translate(0,952.36218)"
       id="path2"
       inkscape:connector-curvature="0" />
  </g>
  <g
     id="g3690"
     transform="translate(1.059322,-951.93845)">
    <path
       id="path3688"
       transform="translate(0,952.36218)"
       d="M 24.28125,12 C 20.90512,12 18,14.63392 18,18 v 34 c 0,1.246104 0.389738,2.394808 1.0625,3.34375 L 6.3125,75.9375 A 2.0002,2.0002 0 0 0 6,77 v 5 a 2.0002,2.0002 0 0 0 2,2 h 42 42 a 2.0002,2.0002 0 0 0 2,-2 V 77 A 2.0002,2.0002 0 0 0 93.6875,75.9375 L 80.9375,55.34375 C 81.610262,54.394808 82,53.246104 82,52 V 18 c 0,-3.36608 -2.90512,-6 -6.28125,-6 z m 0,4 h 51.4375 C 77.091191,16 78,16.93408 78,18 v 34 c 0,1.0659 -0.908809,2 -2.28125,2 H 24.28125 C 22.908809,54 22,53.0659 22,52 V 18 c 0,-1.06592 0.908809,-2 2.28125,-2 z M 47.875,24.96875 a 2.0001989,2.0001989 0 0 0 -1.8125,2.5 l 4,16 A 2.0001989,2.0001989 0 1 0 53.9375,42.5 l -4,-16 A 2.0001989,2.0001989 0 0 0 47.875,24.96875 Z m -5.0625,1 A 2.0001989,2.0001989 0 0 0 41.25,27 l -4,7 a 2.0001989,2.0001989 0 0 0 0,1.96875 l 4,7 A 2.0078581,2.0078581 0 1 0 44.75,41 L 41.3125,35 44.75,28.96875 a 2.0001989,2.0001989 0 0 0 -1.9375,-3 z m 13.90625,0 a 2.0001989,2.0001989 0 0 0 -1.46875,3 L 58.6875,35 55.25,41 a 2.0078581,2.0078581 0 1 0 3.5,1.96875 l 4,-7 A 2.0001989,2.0001989 0 0 0 62.75,34 l -4,-7 A 2.0001989,2.0001989 0 0 0 56.71875,25.96875 Z M 22.28125,57.6875 c 0.632107,0.205396 1.30719,0.3125 2,0.3125 h 51.4375 c 0.69281,0 1.367893,-0.107104 2,-0.3125 L 90,77.53125 V 80 H 50 10 V 77.53125 Z M 31.8125,62 A 2.0021961,2.0021961 0 1 0 32,66 h 36 a 2.0002,2.0002 0 1 0 0,-4 H 32 a 2.0002,2.0002 0 0 0 -0.1875,0 z m -5,8 A 2.0021961,2.0021961 0 1 0 27,74 h 46 a 2.0001996,2.0001996 0 1 0 0,-4 H 27 a 2.0001996,2.0001996 0 0 0 -0.1875,0 z"
       style="color:#000000;font-style:normal;font-variant:normal;font-weight:normal;font-stretch:normal;font-size:medium;line-height:normal;font-family:Sans;-inkscape-font-specification:Sans;text-indent:0;text-align:start;text-decoration:none;text-decoration-line:none;letter-spacing:normal;word-spacing:normal;text-transform:none;writing-mode:lr-tb;direction:ltr;baseline-shift:baseline;text-anchor:start;display:inline;overflow:visible;visibility:visible;opacity:1;fill:#000000;fill-opacity:1;stroke:none;stroke-width:4;marker:none;enable-background:accumulate"
       inkscape:connector-curvature="0" />
  </g>
</svg>
